<?xml version="1.0" encoding="iso-8859-1"?>
<!-- Generator: Adobe Illustrator 19.0.0, SVG Export Plug-In . SVG Version: 6.00 Build 0)  -->
<svg version="1.1" id="Layer_1" xmlns="http://www.w3.org/2000/svg" xmlns:xlink="http://www.w3.org/1999/xlink" x="0px" y="0px"
	 viewBox="0 0 512.001 512.001" style="enable-background:new 0 0 512.001 512.001;" xml:space="preserve">
<g>
	<g>
		<path d="M435.2,51.201v-25.6c0-14.14-11.46-25.6-25.6-25.6H51.2c-14.14,0-25.6,11.46-25.6,25.6v38.4H12.8
			c-7.074,0-12.8,5.726-12.8,12.8c0,7.074,5.726,12.8,12.8,12.8h12.8v25.6H12.8c-7.074,0-12.8,5.726-12.8,12.8s5.726,12.8,12.8,12.8
			h12.8v25.6H12.8c-7.074,0-12.8,5.726-12.8,12.8s5.726,12.8,12.8,12.8h12.8v25.6H12.8c-7.074,0-12.8,5.726-12.8,12.8
			c0,7.074,5.726,12.8,12.8,12.8h12.8v25.6H12.8c-7.074,0-12.8,5.726-12.8,12.8c0,7.074,5.726,12.8,12.8,12.8h12.8v25.6H12.8
			c-7.074,0-12.8,5.726-12.8,12.8c0,7.074,5.726,12.8,12.8,12.8h12.8v25.6H12.8c-7.074,0-12.8,5.726-12.8,12.8
			c0,7.074,5.726,12.8,12.8,12.8h12.8v25.6H12.8c-7.074,0-12.8,5.726-12.8,12.8c0,7.074,5.726,12.8,12.8,12.8h12.8v38.4
			c0,14.14,11.46,25.6,25.6,25.6h358.4c14.14,0,25.6-11.46,25.6-25.6V238.797l-25.6,25.6v222.003H51.2v-38.4H64
			c7.074,0,12.8-5.726,12.8-12.8c0-7.074-5.726-12.8-12.8-12.8H51.2v-25.6H64c7.074,0,12.8-5.726,12.8-12.8
			c0-7.074-5.726-12.8-12.8-12.8H51.2v-25.6H64c7.074,0,12.8-5.726,12.8-12.8c0-7.074-5.726-12.8-12.8-12.8H51.2v-25.6H64
			c7.074,0,12.8-5.726,12.8-12.8c0-7.074-5.726-12.8-12.8-12.8H51.2v-25.6H64c7.074,0,12.8-5.726,12.8-12.8
			c0-7.074-5.726-12.8-12.8-12.8H51.2v-25.6H64c7.074,0,12.8-5.726,12.8-12.8s-5.726-12.8-12.8-12.8H51.2v-25.6H64
			c7.074,0,12.8-5.726,12.8-12.8s-5.726-12.8-12.8-12.8H51.2v-25.6H64c7.074,0,12.8-5.726,12.8-12.8c0-7.074-5.726-12.8-12.8-12.8
			H51.2v-38.4h358.4v25.6H435.2z"/>
	</g>
</g>
<g>
	<g>
		<path d="M504.499,97.101l-25.6-25.6c-4.992-5.001-11.546-7.501-18.099-7.501c-6.554,0-13.107,2.5-18.099,7.501l-5.308,5.299H384
			c-3.396,0-6.647,1.348-9.054,3.746l-76.8,76.8l18.099,18.099l73.054-73.045h22.494L212.301,301.901
			c-1.946,1.946-3.567,4.19-4.796,6.656l-25.6,51.2c-4.932,9.856-2.995,21.76,4.796,29.551c4.915,4.915,11.469,7.501,18.108,7.501
			c3.883,0,7.799-0.887,11.443-2.705l51.2-25.6c2.458-1.229,4.71-2.85,6.656-4.796l230.4-230.4
			C514.5,123.307,514.5,107.094,504.499,97.101z M204.8,371.201l19.567-39.134l19.567,19.558L204.8,371.201z M265.054,336.547
			l-25.6-25.6L460.8,89.601l25.6,25.6L265.054,336.547z"/>
	</g>
</g>
<g>
</g>
<g>
</g>
<g>
</g>
<g>
</g>
<g>
</g>
<g>
</g>
<g>
</g>
<g>
</g>
<g>
</g>
<g>
</g>
<g>
</g>
<g>
</g>
<g>
</g>
<g>
</g>
<g>
</g>
</svg>
